<?xml version="1.0" encoding="UTF-8" standalone="no"?>
<!-- Created with Inkscape (http://www.inkscape.org/) -->

<svg
   xmlns:dc="http://purl.org/dc/elements/1.1/"
   xmlns:cc="http://creativecommons.org/ns#"
   xmlns:rdf="http://www.w3.org/1999/02/22-rdf-syntax-ns#"
   xmlns:svg="http://www.w3.org/2000/svg"
   xmlns="http://www.w3.org/2000/svg"
   xmlns:xlink="http://www.w3.org/1999/xlink"
   xmlns:sodipodi="http://sodipodi.sourceforge.net/DTD/sodipodi-0.dtd"
   xmlns:inkscape="http://www.inkscape.org/namespaces/inkscape"
   version="1.1"
   width="100"
   height="100"
   id="svg2"
   inkscape:version="0.48.2 r9819"
   sodipodi:docname="logo.svg"
   inkscape:export-filename="C:\Users\Luis Henrique\Documents\GitHub\blamoo.github.io\img\favicon.png"
   inkscape:export-xdpi="14.4"
   inkscape:export-ydpi="14.4">
  <sodipodi:namedview
     pagecolor="#ffffff"
     bordercolor="#666666"
     borderopacity="1"
     objecttolerance="10"
     gridtolerance="10"
     guidetolerance="10"
     inkscape:pageopacity="0"
     inkscape:pageshadow="2"
     inkscape:window-width="1920"
     inkscape:window-height="1028"
     id="namedview18"
     showgrid="false"
     inkscape:zoom="2.36"
     inkscape:cx="50"
     inkscape:cy="50"
     inkscape:window-x="-8"
     inkscape:window-y="-8"
     inkscape:window-maximized="1"
     inkscape:current-layer="g3914" />
  <defs
     id="defs4">
    <path
       d="m 7,1032.3622 c 0,0 48,-14 47,-45.00002 -1,-31 12.444445,-27 36,-27 -17.666666,13.14285 -4.329463,50.14342 -10,62.00002 -11,23 -73,10 -73,10 z"
       id="path3928"
       style="opacity:0;fill:#ffffff;fill-opacity:1;stroke:none" />
    <rect
       width="100"
       height="100"
       ry="18.281788"
       x="2.4980018e-015"
       y="952.36218"
       id="rect4010"
       style="fill:#ff00ff;fill-opacity:1;stroke:none" />
    <clipPath
       id="clipPath3926">
      <use
         id="use3950"
         x="0"
         y="0"
         width="100"
         height="100"
         xlink:href="#path3928" />
    </clipPath>
    <clipPath
       id="clipPath4008">
      <use
         id="use4038"
         x="0"
         y="0"
         width="100"
         height="100"
         xlink:href="#rect4010" />
    </clipPath>
  </defs>
  <metadata
     id="metadata7">
    <rdf:RDF>
      <cc:Work
         rdf:about="">
        <dc:format>image/svg+xml</dc:format>
        <dc:type
           rdf:resource="http://purl.org/dc/dcmitype/StillImage" />
        <dc:title />
      </cc:Work>
    </rdf:RDF>
  </metadata>
  <g
     transform="translate(0,-952.36218)"
     clip-path="url(#clipPath4008)"
     id="layer1">
    <path
       d="m 0,952.36218 100,0 0,80.00002 L 0,997.36218 z"
       id="path3765"
       style="fill:#306730;fill-opacity:1;stroke:none" />
    <path
       d="m 0,1052.3622 0,-60.00002 100,35.00002 0,25 z"
       id="path3767"
       style="fill:#989165;fill-opacity:1;stroke:none" />
    <g
       transform="translate(-4,4)"
       clip-path="url(#clipPath3926)"
       id="g3914">
      <rect
         width="100"
         height="100"
         x="0"
         y="0"
         transform="translate(0,952.36218)"
         id="rect3930"
         style="fill:#ffffff;fill-opacity:1;stroke:none" />
      <path
         d="m 120,42.5 a 30,22.5 0 1 1 -60,0 30,22.5 0 1 1 60,0 z"
         transform="matrix(0.09635417,0,0,0.24722217,58.96875,960.79274)"
         id="path2995"
         style="fill:#000000;fill-opacity:1;stroke:none"
         inkscape:connector-curvature="0" />
      <path
         d="m 68,1011.8622 c 0,12.4264 -19.431458,14.5 -36,14.5 -16.568542,0 -24,-12 -24,-12 l 41,-24.00002 c 9,0 19,9.07359 19,21.50002 z"
         id="path3938"
         style="fill:#4d4d4d;fill-opacity:1;stroke:none"
         inkscape:connector-curvature="0" />
    </g>
  </g>
</svg>
